<svg xmlns="http://www.w3.org/2000/svg" xmlns:xlink="http://www.w3.org/1999/xlink" width="96.355" height="94.343" viewBox="0 0 96.355 94.343">
  <defs>
    <clipPath id="clip-path">
      <rect id="Rectangle_1476" data-name="Rectangle 1476" width="96.355" height="94.343" fill="none"/>
    </clipPath>
  </defs>
  <g id="Group_1769" data-name="Group 1769" transform="translate(0 0)">
    <g id="Group_1768" data-name="Group 1768" transform="translate(0 0)" clip-path="url(#clip-path)">
      <path id="Path_1014" data-name="Path 1014" d="M92.58,64.86A12.636,12.636,0,1,1,79.944,52.224,12.636,12.636,0,0,1,92.58,64.86" transform="translate(3.775 2.929)" fill="#aae2d0"/>
      <path id="Path_1015" data-name="Path 1015" d="M25.271,26.037A12.636,12.636,0,1,1,12.635,13.4,12.636,12.636,0,0,1,25.271,26.037" transform="translate(0 0.751)" fill="#aae2d0"/>
      <path id="Path_1016" data-name="Path 1016" d="M92.5,26.037A12.636,12.636,0,1,1,79.866,13.4,12.636,12.636,0,0,1,92.5,26.037" transform="translate(3.771 0.751)" fill="#aae2d0"/>
      <path id="Path_1017" data-name="Path 1017" d="M12.451,32.476A6.481,6.481,0,1,1,18.932,26a6.489,6.489,0,0,1-6.481,6.481m0-11.131A4.65,4.65,0,1,0,17.1,26a4.656,4.656,0,0,0-4.65-4.65" transform="translate(0.335 1.094)" fill="#424242"/>
      <path id="Path_1018" data-name="Path 1018" d="M79.254,32.476A6.481,6.481,0,1,1,85.736,26a6.488,6.488,0,0,1-6.482,6.481m0-11.131A4.65,4.65,0,1,0,83.9,26a4.656,4.656,0,0,0-4.65-4.65" transform="translate(4.081 1.094)" fill="#424242"/>
      <path id="Path_1019" data-name="Path 1019" d="M12.451,70.863a6.482,6.482,0,1,1,6.481-6.481,6.489,6.489,0,0,1-6.481,6.481m0-11.131a4.65,4.65,0,1,0,4.65,4.65,4.655,4.655,0,0,0-4.65-4.65" transform="translate(0.335 3.247)" fill="#424242"/>
      <path id="Path_1020" data-name="Path 1020" d="M79.254,70.863a6.482,6.482,0,1,1,6.482-6.481,6.488,6.488,0,0,1-6.482,6.481m0-11.131a4.65,4.65,0,1,0,4.65,4.65,4.656,4.656,0,0,0-4.65-4.65" transform="translate(4.081 3.247)" fill="#424242"/>
      <path id="Path_1021" data-name="Path 1021" d="M45.344,28.618a.915.915,0,0,1-.916-.916V11.457a.916.916,0,1,1,1.831,0V27.7a.915.915,0,0,1-.916.916" transform="translate(2.492 0.591)" fill="#424242"/>
      <path id="Path_1022" data-name="Path 1022" d="M45.344,79.753a.915.915,0,0,1-.916-.916V62.591a.916.916,0,0,1,1.831,0V78.837a.915.915,0,0,1-.916.916" transform="translate(2.492 3.459)" fill="#424242"/>
      <path id="Path_1023" data-name="Path 1023" d="M30.7,36.93a.911.911,0,0,1-.463-.126l-13.7-8.035a.916.916,0,0,1,.926-1.581l13.7,8.035A.916.916,0,0,1,30.7,36.93" transform="translate(0.902 1.517)" fill="#424242"/>
      <path id="Path_1024" data-name="Path 1024" d="M74.866,63.181a.906.906,0,0,1-.467-.129l-13.969-8.3a.916.916,0,0,1,.936-1.576l13.969,8.3a.916.916,0,0,1-.469,1.7" transform="translate(3.364 2.975)" fill="#424242"/>
      <path id="Path_1025" data-name="Path 1025" d="M17.142,63.087a.916.916,0,0,1-.474-1.7L30.219,53.2a.916.916,0,0,1,.946,1.568L17.615,62.955a.914.914,0,0,1-.473.132" transform="translate(0.91 2.976)" fill="#424242"/>
      <path id="Path_1026" data-name="Path 1026" d="M60.87,37.024a.916.916,0,0,1-.47-1.7l13.8-8.234a.916.916,0,1,1,.938,1.574l-13.8,8.233a.911.911,0,0,1-.468.13" transform="translate(3.362 1.512)" fill="#424242"/>
      <path id="Path_1027" data-name="Path 1027" d="M42.143,82.957a.915.915,0,0,1-.46-.125L16.11,67.941a.916.916,0,0,1,.922-1.583L42.6,81.249a.916.916,0,0,1-.462,1.708" transform="translate(0.878 3.714)" fill="#424242"/>
      <path id="Path_1028" data-name="Path 1028" d="M16.573,24.416a.916.916,0,0,1-.462-1.708L41.682,7.817A.916.916,0,0,1,42.605,9.4L17.032,24.292a.914.914,0,0,1-.459.125" transform="translate(0.878 0.431)" fill="#424242"/>
      <path id="Path_1029" data-name="Path 1029" d="M12.014,60.91a.915.915,0,0,1-.916-.916V31.113a.916.916,0,0,1,1.831,0V59.994a.915.915,0,0,1-.916.916" transform="translate(0.622 1.693)" fill="#424242"/>
      <path id="Path_1030" data-name="Path 1030" d="M50.615,82.957a.916.916,0,0,1-.464-1.707L75.573,66.359A.916.916,0,0,1,76.5,67.94L51.076,82.831a.9.9,0,0,1-.462.126" transform="translate(2.787 3.714)" fill="#424242"/>
      <path id="Path_1031" data-name="Path 1031" d="M75.885,24.265a.912.912,0,0,1-.46-.125L50.152,9.4a.916.916,0,0,1,.923-1.582L76.347,22.557a.916.916,0,0,1-.463,1.708" transform="translate(2.787 0.431)" fill="#424242"/>
      <path id="Path_1032" data-name="Path 1032" d="M79.386,60.91a.915.915,0,0,1-.916-.916V31.113a.916.916,0,1,1,1.831,0V59.994a.915.915,0,0,1-.916.916" transform="translate(4.401 1.693)" fill="#424242"/>
      <path id="Path_1033" data-name="Path 1033" d="M46.011,12.963a6.482,6.482,0,1,1,6.481-6.481,6.489,6.489,0,0,1-6.481,6.481m0-11.131a4.65,4.65,0,1,0,4.65,4.65,4.655,4.655,0,0,0-4.65-4.65" transform="translate(2.217 0)" fill="#424242"/>
      <path id="Path_1034" data-name="Path 1034" d="M46.011,90.021a6.482,6.482,0,1,1,6.481-6.481,6.489,6.489,0,0,1-6.481,6.481m0-11.131a4.65,4.65,0,1,0,4.65,4.65,4.655,4.655,0,0,0-4.65-4.65" transform="translate(2.217 4.321)" fill="#424242"/>
      <path id="Path_1035" data-name="Path 1035" d="M46.706,65.2A19.567,19.567,0,1,1,66.272,45.635,19.588,19.588,0,0,1,46.706,65.2m0-37.3A17.734,17.734,0,1,0,64.44,45.635,17.754,17.754,0,0,0,46.706,27.9" transform="translate(1.522 1.462)" fill="#424242"/>
      <circle id="Ellipse_146" data-name="Ellipse 146" cx="6.858" cy="6.858" r="6.858" transform="translate(41.204 34.058)" fill="none" stroke="#424242" stroke-miterlimit="10" stroke-width="1.75"/>
      <path id="Path_1036" data-name="Path 1036" d="M45.9,63.158A19.038,19.038,0,0,1,33.779,58.3c-.528-.429-.707-.728-.595-1.221,1.73-7.632,5.77-11.416,13.017-11.416,7.275,0,11.372,4.25,13.088,11.778.1.456.012.55-.2.759A18.873,18.873,0,0,1,45.9,63.158Z" transform="translate(1.859 2.56)" fill="none" stroke="#424242" stroke-miterlimit="10" stroke-width="1.5"/>
    </g>
  </g>
</svg>
