<?xml version="1.0" encoding="utf-8"?>
<!-- Generator: Adobe Illustrator 22.1.0, SVG Export Plug-In . SVG Version: 6.00 Build 0)  -->
<svg version="1.1" id="Layer_1" xmlns="http://www.w3.org/2000/svg" xmlns:xlink="http://www.w3.org/1999/xlink" x="0px" y="0px"
	 viewBox="0 0 317.7 141.9" style="enable-background:new 0 0 317.7 141.9;" xml:space="preserve">
<style type="text/css">
	.st0{fill:#FFFFFF;}
</style>
<g>
	<path class="st0" d="M27.8,57.9h3.9c0.4,0,0.7,0.3,0.7,0.7v16.2c0,1.3-0.1,2.4-0.1,2.4h0.1c1.2-2.7,4.8-6.3,10.5-6.3
		c6.7,0,9.7,3.6,9.7,10.9v17.4c0,0.4-0.3,0.7-0.7,0.7H48c-0.4,0-0.7-0.3-0.7-0.7V82.9c0-4-0.8-7.1-5.4-7.1c-4.3,0-7.8,2.9-9,7
		c-0.3,1.1-0.4,2.4-0.4,3.8v12.5c0,0.4-0.3,0.7-0.7,0.7h-3.9c-0.4,0-0.7-0.3-0.7-0.7V58.6C27,58.2,27.4,57.9,27.8,57.9"/>
	<path class="st0" d="M71.3,70.8c8,0,12.3,5.9,12.3,13.3c0,0.4,0,1-0.1,1.5c0,0.5-0.5,0.9-1,0.9H62.8c0.3,6.2,4.7,9.4,9.7,9.4
		c3.5,0,6.3-1.7,7.6-2.7c0.4-0.3,1-0.2,1.3,0.3l1.3,2.3c0.3,0.5,0.1,1.1-0.3,1.4c-1.5,1.1-5.1,3.4-10.3,3.4c-8.9,0-15-6.4-15-14.8
		C57.2,76.6,63.3,70.8,71.3,70.8 M78.1,82.3c-0.2-4.9-3.2-7.2-6.8-7.2c-4.1,0-7.5,2.6-8.3,7.2H78.1z"/>
	<path class="st0" d="M103.3,82.1h1.2v-0.5c0-4.6-2.6-6.2-6.2-6.2c-3.3,0-6.1,1.5-7.3,2.3c-0.3,0.2-0.8,0.1-1-0.2l-1.6-2.8
		c-0.2-0.3-0.1-0.7,0.2-0.9c1.3-0.9,4.9-3,10.1-3c6.2,0,11.2,5.1,11.2,11.3v17c0,0.4-0.3,0.7-0.7,0.7h-3.5c-0.4,0-0.7-0.3-0.7-0.7
		v-1.9c0-1.3,0.1-2.2,0.1-2.2h-0.1c0,0-2.3,5.6-9.1,5.6c-4.9,0-9.6-3-9.6-8.6C86.2,82.5,98.6,82.1,103.3,82.1 M97,96.1
		c4.6,0,7.6-4.8,7.6-9v-0.9h-1.4c-4.1,0-11.5,0.3-11.5,5.4C91.7,93.9,93.5,96.1,97,96.1"/>
	<path class="st0" d="M121.5,91.1V65c0-0.4-0.4-0.7-0.8-0.6l-3.8,0.8c-0.5,0.1-0.9,0.6-0.9,1.1v25.8c0,7.1,4.5,8,7.6,8
		c0.4,0,0.7,0,1,0c0.4,0,0.7-0.4,0.7-0.8v-3.7c0-0.3-0.1-0.3-0.3-0.3c-0.2,0-0.4,0-0.7,0C122.9,95.2,121.5,94.6,121.5,91.1"/>
	<path class="st0" d="M136.2,88.8V76.2h6.1c0.4,0,0.7-0.3,0.7-0.7v-2.9c0-0.4-0.3-0.7-0.7-0.7h-6.1v-10c0-0.4-0.4-0.7-0.8-0.6
		l-3.6,0.8c-0.5,0.1-0.9,0.6-0.9,1.1v8.8h-3.1c-0.4,0-0.7,0.3-0.7,0.7v2.9c0,0.4,0.3,0.7,0.7,0.7h2.9v13.2c0,9.5,7.2,10.6,10.9,10.6
		c0.5,0,0.9,0,1.2,0c0.4,0,0.7-0.4,0.7-0.8v-3.7c0-0.4-0.1-0.4-0.4-0.4c-0.2,0-0.5,0-0.9,0C140.2,95.2,136.2,94.5,136.2,88.8"/>
	<path class="st0" d="M163.9,70.8c-5.7,0-9.2,3.6-10.5,6.3h-0.1c0,0,0.1-1,0.1-2.3V58.1c0-0.4-0.4-0.7-0.8-0.6l-3.8,0.8
		c-0.5,0.1-0.9,0.6-0.9,1.1v39.7c0,0.4,0.3,0.7,0.7,0.7h3.9c0.4,0,0.7-0.3,0.7-0.7V86.5c0-1.3,0.1-2.6,0.4-3.8c1.2-4.1,4.7-7,9-7
		c4.5,0,5.4,3.1,5.4,7.1v16.2c0,0.4,0.3,0.7,0.7,0.7h3.9c0.4,0,0.7-0.3,0.7-0.7V81.7C173.6,74.5,170.5,70.8,163.9,70.8"/>
	<path class="st0" d="M177.7,71.3h5.9c0.5,0,0.9,0.3,1,0.8l4.8,18c0.4,1.5,0.6,3,0.6,3h0.1c0,0,0.3-1.5,0.7-3l5-17.9
		c0.1-0.5,0.5-0.8,1-0.8h4.7c0.5,0,0.9,0.3,1,0.8l5,17.9c0.4,1.5,0.6,3,0.6,3h0.1c0,0,0.2-1.5,0.6-3l4.8-18c0.1-0.5,0.5-0.8,1-0.8
		h5.8c0.4,0,0.7,0.4,0.6,0.8l-8.3,27.2c-0.1,0.4-0.5,0.6-0.8,0.6h-6.6c-0.4,0-0.7-0.3-0.9-0.6l-4.6-15.7c-0.4-1.5-0.7-3.1-0.7-3.1
		h-0.1c0,0-0.2,1.6-0.7,3.1l-4.6,15.7c-0.1,0.4-0.5,0.6-0.9,0.6h-6.6c-0.4,0-0.7-0.3-0.8-0.6L177.1,72
		C177,71.6,177.3,71.3,177.7,71.3"/>
	<path class="st0" d="M226.8,71.3h5.6c0.4,0,0.7,0.3,0.7,0.7v27.1c0,0.4-0.3,0.7-0.7,0.7h-5.6c-0.4,0-0.7-0.3-0.7-0.7V72
		C226,71.6,226.4,71.3,226.8,71.3"/>
	<path class="st0" d="M240.9,92c0.2-0.3,0.7-0.4,1-0.2c1.1,0.9,3.7,2.6,7.2,2.6c2,0,3.8-0.9,3.8-2.6c0-4.3-13.9-3.7-13.9-12.9
		c0-5.3,4.8-8.4,10.9-8.4c4.6,0,7.5,1.7,8.8,2.6c0.5,0.3,0.6,1,0.3,1.5l-1.8,3.7c-0.2,0.4-0.6,0.5-1,0.3c-1-0.7-3.3-2-6.4-2
		c-1.8,0-3.6,0.8-3.6,2.6c0,4,13.9,3.5,13.9,12.7c0,4.8-4.1,8.6-10.9,8.6c-5.3,0-8.8-2.3-10.3-3.5c-0.5-0.4-0.6-1-0.3-1.6L240.9,92z
		"/>
	<path class="st0" d="M277.1,70.6c8.2,0,12.7,6,12.7,13.6c0,0.6-0.1,1.6-0.1,2.2c0,0.3-0.3,0.6-0.6,0.6h-19.2c0.4,5,4.3,7.6,8.6,7.6
		c3.4,0,6.3-1.8,7.6-2.6c0.4-0.3,0.9-0.1,1.1,0.3l1.9,3.5c0.3,0.5,0.1,1.1-0.3,1.4c-1.5,1.1-5.3,3.5-10.7,3.5
		c-9.5,0-15.3-6.8-15.3-15C262.6,76.7,268.6,70.6,277.1,70.6 M282.6,82c-0.1-3.9-2.5-5.9-5.7-5.9c-3.6,0-6.2,2.2-6.8,5.9H282.6z"/>
	<path class="st0" d="M291.5,62.4c2.5,0,4.5,2,4.5,4.6c0,2.5-2,4.6-4.5,4.6c-2.5,0-4.5-2-4.5-4.6C287.1,64.4,289.1,62.4,291.5,62.4
		 M291.5,70.7c2,0,3.6-1.6,3.6-3.7c0-2.1-1.6-3.7-3.6-3.7c-2,0-3.5,1.6-3.5,3.7C288,69.1,289.5,70.7,291.5,70.7 M290,65
		c0-0.3,0.1-0.4,0.4-0.4h1.4c0.9,0,1.5,0.6,1.5,1.4c0,0.7-0.5,1.2-0.9,1.3v0c0,0,0,0,0.2,0.3l0.7,1.3c0.2,0.3,0.1,0.5-0.2,0.5h-0.2
		c-0.2,0-0.4-0.1-0.5-0.3l-0.7-1.5h-0.8v1.4c0,0.3-0.1,0.4-0.4,0.4h-0.1c-0.3,0-0.4-0.1-0.4-0.4V65z M291.6,66.9
		c0.5,0,0.8-0.3,0.8-0.8c0-0.5-0.3-0.8-0.8-0.8h-0.8v1.6H291.6z"/>
	<path class="st0" d="M57.1,112.1h-0.8c-0.3,0-0.5-0.2-0.5-0.5v-0.2c0-0.3,0.2-0.5,0.5-0.5h0.8v-0.4c0-3.1,2.3-3.6,3.2-3.6h0.2
		c0.3,0,0.5,0.2,0.5,0.5v0.2c0,0.3-0.2,0.4-0.5,0.5c-0.8,0-2.1,0.3-2.1,2.4v0.4h2c0.3,0,0.5,0.2,0.5,0.5v0.2c0,0.3-0.2,0.5-0.5,0.5
		h-2v8c0,0.3-0.2,0.5-0.5,0.5h-0.4c-0.3,0-0.5-0.2-0.5-0.5V112.1z"/>
	<path class="st0" d="M66.6,110.7c2.8,0,5.1,2.2,5.1,5c0,2.9-2.3,5.1-5.1,5.1c-2.8,0-5.1-2.2-5.1-5.1
		C61.5,112.8,63.8,110.7,66.6,110.7 M66.6,119.6c2.1,0,3.7-1.7,3.7-3.9c0-2.2-1.7-3.8-3.7-3.8c-2.1,0-3.8,1.7-3.8,3.8
		C62.9,117.9,64.6,119.6,66.6,119.6"/>
	<path class="st0" d="M73.5,111.4c0-0.3,0.2-0.5,0.5-0.5h0.3c0.3,0,0.5,0.2,0.5,0.5v1.3c0,0.4-0.1,0.8-0.1,0.8h0
		c0.5-1.4,1.6-2.6,3.1-2.6c0.3,0,0.5,0.2,0.5,0.5v0.3c0,0.3-0.2,0.5-0.5,0.5c-2,0-3,2.3-3,4.3v3.6c0,0.3-0.2,0.5-0.5,0.5H74
		c-0.3,0-0.5-0.2-0.5-0.5V111.4z"/>
	<path class="st0" d="M89.4,110.7c2.6,0,4,1.9,4,4.6c0,0.3-0.2,0.5-0.5,0.5H86c0.1,2.5,1.7,3.9,3.7,3.9c1.2,0,2.1-0.5,2.5-0.9
		c0.3-0.2,0.5-0.1,0.6,0.1l0.2,0.2c0.1,0.2,0.1,0.5-0.1,0.6c-0.5,0.4-1.7,1.1-3.2,1.1c-2.9,0-5-2.1-5-5
		C84.7,112.6,86.8,110.7,89.4,110.7 M92.1,114.8c-0.1-2-1.3-3-2.7-3c-1.6,0-3,1.1-3.3,3H92.1z"/>
	<path class="st0" d="M94.7,111.5c-0.1-0.3,0-0.6,0.4-0.6h0.4c0.2,0,0.4,0.1,0.5,0.4l2.6,6.7c0.2,0.5,0.3,1.2,0.3,1.2h0
		c0,0,0.2-0.7,0.3-1.2l2.5-6.7c0.1-0.3,0.3-0.4,0.5-0.4h0.4c0.4,0,0.5,0.2,0.4,0.6l-3.4,8.7c-0.1,0.2-0.3,0.4-0.5,0.4h-0.6
		c-0.3,0-0.4-0.1-0.5-0.4L94.7,111.5z"/>
	<path class="st0" d="M109,110.7c2.6,0,4,1.9,4,4.6c0,0.3-0.2,0.5-0.5,0.5h-6.9c0.1,2.5,1.7,3.9,3.7,3.9c1.2,0,2.1-0.5,2.5-0.9
		c0.3-0.2,0.5-0.1,0.6,0.1l0.2,0.2c0.1,0.2,0.1,0.5-0.1,0.6c-0.5,0.4-1.7,1.1-3.2,1.1c-2.9,0-5-2.1-5-5
		C104.2,112.6,106.4,110.7,109,110.7 M111.7,114.8c-0.1-2-1.3-3-2.7-3c-1.6,0-3,1.1-3.3,3H111.7z"/>
	<path class="st0" d="M115.5,111.4c0-0.3,0.2-0.5,0.5-0.5h0.3c0.3,0,0.5,0.2,0.5,0.5v1.3c0,0.4-0.1,0.8-0.1,0.8h0
		c0.5-1.4,1.6-2.6,3.1-2.6c0.3,0,0.5,0.2,0.5,0.5v0.3c0,0.3-0.2,0.5-0.5,0.5c-2,0-3,2.3-3,4.3v3.6c0,0.3-0.2,0.5-0.5,0.5H116
		c-0.3,0-0.5-0.2-0.5-0.5V111.4z"/>
	<path class="st0" d="M121.4,123.2c0.2,0.1,0.5,0.2,0.8,0.2c0.9,0,1.4-0.8,1.8-1.6l0.6-1.4l-3.8-9c-0.1-0.3,0-0.6,0.4-0.6h0.4
		c0.3,0,0.4,0.1,0.5,0.4l2.7,6.7c0.2,0.5,0.3,1,0.3,1h0c0,0,0.1-0.5,0.3-1l2.6-6.7c0.1-0.3,0.2-0.4,0.5-0.4h0.4
		c0.3,0,0.5,0.2,0.4,0.6l-4.5,11.1c-0.5,1.2-1.5,2.1-2.8,2.1c-0.6,0-1-0.2-1.3-0.3c-0.2-0.1-0.3-0.4-0.2-0.6l0.1-0.2
		C121,123.2,121.2,123.1,121.4,123.2"/>
	<path class="st0" d="M136.2,107.6c0-0.3,0.2-0.5,0.5-0.5h0.4c0.3,0,0.5,0.2,0.5,0.5v4.8c0,0.4-0.1,0.8-0.1,0.8h0
		c0.4-0.9,1.7-2.5,3.9-2.5c2.4,0,3.2,1.4,3.2,3.7v5.7c0,0.3-0.2,0.5-0.5,0.5h-0.4c-0.3,0-0.5-0.2-0.5-0.5v-5.3
		c0-1.5-0.2-2.9-2.1-2.9c-2,0-3.6,1.7-3.6,4v4.2c0,0.3-0.2,0.5-0.5,0.5h-0.4c-0.3,0-0.5-0.2-0.5-0.5V107.6z"/>
	<path class="st0" d="M151.4,110.7c2.6,0,4,1.9,4,4.6c0,0.3-0.2,0.5-0.5,0.5H148c0.1,2.5,1.7,3.9,3.7,3.9c1.2,0,2.1-0.5,2.5-0.9
		c0.3-0.2,0.5-0.1,0.6,0.1l0.2,0.2c0.1,0.2,0.1,0.5-0.1,0.6c-0.5,0.4-1.7,1.1-3.2,1.1c-2.9,0-5-2.1-5-5
		C146.6,112.6,148.8,110.7,151.4,110.7 M154.1,114.8c-0.1-2-1.3-3-2.7-3c-1.6,0-3,1.1-3.3,3H154.1z"/>
	<path class="st0" d="M162.6,114.7h0.6v-0.3c0-1.9-1-2.5-2.4-2.5c-1.1,0-1.9,0.4-2.3,0.7c-0.3,0.1-0.5,0.1-0.7-0.2l-0.1-0.2
		c-0.2-0.2-0.1-0.5,0.1-0.7c0.5-0.3,1.6-0.8,3.1-0.8c2.3,0,3.6,1.3,3.6,3.7v5.7c0,0.3-0.2,0.5-0.5,0.5h-0.3c-0.3,0-0.5-0.2-0.5-0.5
		v-0.8c0-0.4,0.1-0.7,0.1-0.7h0c0,0-0.9,2.2-3.3,2.2c-1.6,0-3.3-1-3.3-2.8C156.7,114.8,160.7,114.7,162.6,114.7 M160.2,119.7
		c1.9,0,3-1.9,3-3.6v-0.5h-0.5c-1.5,0-4.6,0.1-4.6,2.2C158,118.8,158.7,119.7,160.2,119.7"/>
	<path class="st0" d="M167.3,107.6c0-0.3,0.2-0.5,0.5-0.5h0.4c0.3,0,0.5,0.2,0.5,0.5V118c0,1.2,0.6,1.3,1,1.4c0.2,0,0.4,0.1,0.4,0.4
		v0.3c0,0.3-0.1,0.5-0.5,0.5c-0.8,0-2.2-0.2-2.2-2.4V107.6z"/>
	<path class="st0" d="M172.3,112.1h-0.8c-0.3,0-0.5-0.2-0.5-0.5v-0.2c0-0.3,0.2-0.5,0.5-0.5h0.8v-2.3c0-0.3,0.2-0.5,0.5-0.5h0.3
		c0.3,0,0.5,0.2,0.5,0.5v2.3h2c0.3,0,0.5,0.2,0.5,0.5v0.2c0,0.3-0.2,0.5-0.5,0.5h-2v4.8c0,2.2,1.4,2.5,2.1,2.5
		c0.4,0,0.5,0.2,0.5,0.5v0.3c0,0.3-0.2,0.5-0.5,0.5c-2.1,0-3.4-1.3-3.4-3.6V112.1z"/>
	<path class="st0" d="M178,107.6c0-0.3,0.2-0.5,0.5-0.5h0.4c0.3,0,0.5,0.2,0.5,0.5v4.8c0,0.4-0.1,0.8-0.1,0.8h0
		c0.4-0.9,1.7-2.5,3.9-2.5c2.4,0,3.2,1.4,3.2,3.7v5.7c0,0.3-0.2,0.5-0.5,0.5h-0.4c-0.3,0-0.5-0.2-0.5-0.5v-5.3
		c0-1.5-0.2-2.9-2.1-2.9c-2,0-3.6,1.7-3.6,4v4.2c0,0.3-0.2,0.5-0.5,0.5h-0.4c-0.3,0-0.5-0.2-0.5-0.5V107.6z"/>
	<path class="st0" d="M197.8,110.7c2.3,0,3.2,1.9,3.2,1.9h0c0,0-0.1-0.3-0.1-0.7v-4.3c0-0.3,0.2-0.5,0.5-0.5h0.4
		c0.3,0,0.5,0.2,0.5,0.5v12.5c0,0.3-0.2,0.5-0.5,0.5h-0.3c-0.3,0-0.5-0.2-0.5-0.5v-0.7c0-0.3,0.1-0.6,0.1-0.6h0c0,0-0.8,2-3.4,2
		c-2.6,0-4.2-2.1-4.2-5.1C193.4,112.7,195.2,110.7,197.8,110.7 M197.8,119.6c1.6,0,3.1-1.2,3.1-3.9c0-2-1-3.9-3.1-3.9
		c-1.7,0-3.1,1.4-3.1,3.9C194.8,118.1,196,119.6,197.8,119.6"/>
	<path class="st0" d="M209.1,110.7c2.6,0,4,1.9,4,4.6c0,0.3-0.2,0.5-0.5,0.5h-6.9c0.1,2.5,1.7,3.9,3.7,3.9c1.2,0,2.1-0.5,2.5-0.9
		c0.3-0.2,0.5-0.1,0.6,0.1l0.2,0.2c0.1,0.2,0.1,0.5-0.1,0.6c-0.5,0.4-1.7,1.1-3.2,1.1c-2.9,0-5-2.1-5-5
		C204.4,112.6,206.5,110.7,209.1,110.7 M211.8,114.8c-0.1-2-1.3-3-2.7-3c-1.6,0-3,1.1-3.3,3H211.8z"/>
	<path class="st0" d="M219.7,110.7c1.6,0,2.7,0.7,3.2,1.1c0.2,0.2,0.2,0.4,0.1,0.7l-0.1,0.2c-0.2,0.3-0.4,0.3-0.7,0.1
		c-0.4-0.3-1.3-0.9-2.4-0.9c-2.1,0-3.8,1.6-3.8,3.9c0,2.3,1.7,3.9,3.8,3.9c1.3,0,2.3-0.6,2.7-1c0.2-0.2,0.5-0.2,0.6,0.1l0.1,0.2
		c0.2,0.2,0.1,0.5-0.1,0.7c-0.5,0.4-1.7,1.2-3.4,1.2c-2.9,0-5.1-2.1-5.1-5C214.6,112.8,216.8,110.7,219.7,110.7"/>
	<path class="st0" d="M225.4,108.2v-0.7c0-0.3,0.2-0.5,0.5-0.5h0.5c0.3,0,0.5,0.2,0.5,0.5v0.7c0,0.3-0.2,0.5-0.5,0.5h-0.5
		C225.6,108.7,225.4,108.5,225.4,108.2 M225.5,111.4c0-0.3,0.2-0.5,0.5-0.5h0.4c0.3,0,0.5,0.2,0.5,0.5v8.7c0,0.3-0.2,0.5-0.5,0.5
		H226c-0.3,0-0.5-0.2-0.5-0.5V111.4z"/>
	<path class="st0" d="M229.2,119l0.2-0.2c0.2-0.2,0.4-0.2,0.7-0.1c0.4,0.3,1.3,0.9,2.6,0.9c1.1,0,2-0.5,2-1.6c0-2.2-5.2-1.5-5.2-4.7
		c0-1.8,1.5-2.7,3.3-2.7c1.4,0,2.2,0.5,2.6,0.8c0.2,0.2,0.3,0.4,0.1,0.6l-0.1,0.2c-0.2,0.3-0.4,0.3-0.7,0.1
		c-0.4-0.2-1.1-0.6-2.1-0.6c-1,0-1.9,0.4-1.9,1.5c0,2.2,5.1,1.5,5.1,4.7c0,1.6-1.3,2.7-3.3,2.7c-1.7,0-2.8-0.7-3.3-1.1
		C229,119.5,229,119.3,229.2,119"/>
	<path class="st0" d="M238,108.2v-0.7c0-0.3,0.2-0.5,0.5-0.5h0.5c0.3,0,0.5,0.2,0.5,0.5v0.7c0,0.3-0.2,0.5-0.5,0.5h-0.5
		C238.1,108.7,238,108.5,238,108.2 M238,111.4c0-0.3,0.2-0.5,0.5-0.5h0.4c0.3,0,0.5,0.2,0.5,0.5v8.7c0,0.3-0.2,0.5-0.5,0.5h-0.4
		c-0.3,0-0.5-0.2-0.5-0.5V111.4z"/>
	<path class="st0" d="M246.7,110.7c2.8,0,5.1,2.2,5.1,5c0,2.9-2.3,5.1-5.1,5.1c-2.8,0-5.1-2.2-5.1-5.1
		C241.6,112.8,243.9,110.7,246.7,110.7 M246.7,119.6c2.1,0,3.7-1.7,3.7-3.9c0-2.2-1.7-3.8-3.7-3.8c-2.1,0-3.8,1.7-3.8,3.8
		C243,117.9,244.7,119.6,246.7,119.6"/>
	<path class="st0" d="M253.8,111.4c0-0.3,0.2-0.5,0.5-0.5h0.3c0.3,0,0.5,0.2,0.5,0.5v1.1c0,0.4-0.1,0.7-0.1,0.7h0
		c0.4-0.9,1.6-2.5,3.9-2.5c2.4,0,3.2,1.4,3.2,3.7v5.7c0,0.3-0.2,0.5-0.5,0.5h-0.4c-0.3,0-0.5-0.2-0.5-0.5v-5.3
		c0-1.5-0.2-2.9-2.1-2.9c-2.1,0-3.7,1.7-3.7,3.9v4.2c0,0.3-0.2,0.5-0.5,0.5h-0.4c-0.3,0-0.5-0.2-0.5-0.5V111.4z"/>
	<path class="st0" d="M264.7,106.5c1.4,0,2.4,1.1,2.4,2.5c0,1.4-1.1,2.5-2.4,2.5c-1.3,0-2.4-1.1-2.4-2.5
		C262.3,107.6,263.4,106.5,264.7,106.5 M264.7,111c1.1,0,1.9-0.9,1.9-2c0-1.1-0.8-2-1.9-2c-1.1,0-1.9,0.9-1.9,2
		C262.8,110.1,263.6,111,264.7,111 M263.9,107.9c0-0.2,0.1-0.2,0.2-0.2h0.8c0.5,0,0.8,0.3,0.8,0.8c0,0.4-0.3,0.6-0.5,0.7v0
		c0,0,0,0,0.1,0.1l0.4,0.7c0.1,0.2,0,0.3-0.1,0.3h-0.1c-0.1,0-0.2,0-0.3-0.2l-0.4-0.8h-0.4v0.8c0,0.1-0.1,0.2-0.2,0.2h-0.1
		c-0.1,0-0.2-0.1-0.2-0.2V107.9z M264.8,108.9c0.3,0,0.4-0.2,0.4-0.4c0-0.3-0.2-0.4-0.4-0.4h-0.4v0.9H264.8z"/>
	<path class="st0" d="M180.8,14.1C167.2,14,156,25,156,38.6c0,4,1,7.8,2.7,11.2c0,0.1,0.2,0,0.1-0.1c-1-2.4-1.5-5-1.4-7.8
		c0.3-10.4,8.9-18.7,19.3-18.6c10.5,0.1,18.9,8.5,19,19c0.1,10.4-8.2,19-18.6,19.3c-2.8,0.1-5.4-0.4-7.8-1.4c-0.1,0-0.1,0.1-0.1,0.1
		c3.4,1.7,7.2,2.7,11.2,2.7c13.6,0,24.7-11.2,24.5-24.8C204.8,25,194.1,14.3,180.8,14.1"/>
	<path class="st0" d="M176,27.4c-7.8,0.2-14.3,6.5-14.7,14.4c-0.1,2.7,0.4,5.3,1.6,7.6c0,0.1,0.1,0,0.1,0c-0.3-1-0.4-2.2-0.4-3.3
		c0.3-5.1,4.4-9.3,9.5-9.5c5.9-0.3,10.8,4.6,10.5,10.5c-0.2,5.1-4.4,9.3-9.5,9.5c-1.2,0.1-2.3-0.1-3.3-0.4c-0.1,0-0.1,0.1,0,0.1
		c2.3,1.1,4.9,1.7,7.6,1.6c7.8-0.4,14.1-6.9,14.4-14.7C192,34.3,184.8,27.1,176,27.4"/>
	<path class="st0" d="M178.4,46.5c0,3.2-2.6,5.9-5.9,5.9s-5.9-2.6-5.9-5.9c0-3.2,2.6-5.9,5.9-5.9S178.4,43.3,178.4,46.5"/>
</g>
</svg>